<svg xmlns="http://www.w3.org/2000/svg" xmlns:xlink="http://www.w3.org/1999/xlink" xmlns:fi="http://pattern.flaticon.com/" x="0" y="0" width="500" height="250" viewBox="0 0 875 437.5"><rect x="0px" y="0px" width="100%" height="100%" opacity="0" fill="#ffffff"/><defs><g transform="matrix(0.11392297975802261 -0.035975677019553017 0.035975677019553017 0.11392297975802261 281.62595846080086 93.04563432261175)" id="L1_5"><path d="M467.812,431.851l-36.629-61.056c-16.917-28.181-25.856-60.459-25.856-93.312V224c0-67.52-45.056-124.629-106.667-143.04    V42.667C298.66,19.136,279.524,0,255.993,0s-42.667,19.136-42.667,42.667V80.96C151.716,99.371,106.66,156.48,106.66,224v53.483    c0,32.853-8.939,65.109-25.835,93.291l-36.629,61.056c-1.984,3.307-2.027,7.403-0.128,10.752c1.899,3.349,5.419,5.419,9.259,5.419    H458.66c3.84,0,7.381-2.069,9.28-5.397C469.839,439.275,469.775,435.136,467.812,431.851z" fill="#cccccc"/><path d="M188.815,469.333C200.847,494.464,226.319,512,255.993,512s55.147-17.536,67.179-42.667H188.815z" fill="#cccccc"/></g><path d="M358.839,130.772c-0.666-0.618-1.432-0.931-2.278-0.931c-3.092,0-6.364,4.36-9.251,8.208  c-1.091,1.454-2.527,3.368-3.262,4.005c-0.086-1.467,1.019-5.633,1.85-8.764c2.099-7.914,4.27-16.096,0.735-18  c-0.368-0.198-0.757-0.299-1.157-0.299c-2.545,0-4.492,3.814-7.458,10.037c-2.322,4.871-5.211,10.934-7.597,10.934  c-0.152,0-0.302-0.026-0.456-0.081c-0.42-0.75-0.383-4.184-0.355-6.71c0.072-6.618,0.153-14.118-4.047-14.678  c-0.125-0.017-0.25-0.025-0.374-0.025c-3.63,0-5.748,6.793-7.99,13.986c-1.092,3.504-2.743,8.8-3.677,9.158  c-1.255-0.251-3.792-4.038-5.83-7.081c-3.343-4.99-6.533-9.684-9.487-9.441c-3.081,0.257-3.033,4.63-2.983,9.261  c0.041,3.803,0.093,8.537-1.81,9.561c-0.184,0.099-0.384,0.147-0.61,0.147c-2.116,0-5.594-3.792-8.389-6.839  c-3.259-3.552-5.348-5.73-7.152-5.73c-0.446,0-0.866,0.138-1.214,0.399c-1.985,1.489-1.873,5.99-1.754,10.755  c0.06,2.402,0.15,5.988-0.344,6.747c-0.916-0.125-3.528-1.861-5.844-3.398c-5.123-3.402-11.498-7.637-16.64-7.637  c-0.846,0-1.641,0.118-2.363,0.351c-5.578,1.796-6.648,4.437-7.356,6.185c-0.371,0.916-0.557,1.33-1.071,1.55  c-0.643,0.274-1.683,0.166-2.827-0.007c-0.757-0.115-1.541-0.233-2.374-0.233c-1.837,0-3.357,0.627-4.649,1.919  c-1.313,1.313-2.487,2.87-3.623,4.375c-1.689,2.24-3.286,4.356-4.824,4.933c-0.813,0.305-2.441,2.006-7.028,6.88  c-10.088,10.717-31.079,33.019-41.837,33.02c-2.013,0-3.517-0.806-4.597-2.464c-1.786-2.741-4.461-7.761-7.848-14.118  c-10.695-20.071-26.858-50.404-40.608-57.508C84.014,100.41,52.865,70.21,36.131,53.986c-9.126-8.848-12.368-11.908-14.058-11.908  c-0.479,0-0.899,0.218-1.154,0.599c-0.489,0.729-0.313,1.869,0.648,4.208c2.911,7.082,9.584,16.8,14.947,24.608  c3.098,4.511,6.55,9.539,7.476,11.644c-2.52-1.166-7.368-6.289-11.35-10.497C25.625,65.23,21.154,60.73,18.201,60.73  c-0.564,0-1.063,0.162-1.48,0.479c-2.261,1.718,0.989,6.297,6.928,14.243c2.367,3.167,5.852,7.83,6.29,9.438  c-1.261-0.268-4.061-2.483-6.338-4.285c-3.86-3.054-7.853-6.212-10.77-6.212c-0.56,0-1.073,0.115-1.526,0.341  c-0.667,0.333-1.102,0.876-1.26,1.571c-0.481,2.12,1.733,5.176,5.167,9.597c1.496,1.925,3.712,4.779,3.886,5.796  c-0.138,0.028-0.29,0.042-0.453,0.042c-1.562,0-3.849-1.215-6.061-2.391c-2.423-1.288-4.712-2.504-6.602-2.504  c-0.645,0-1.22,0.144-1.709,0.427c-2.151,1.245-0.206,5.114,1.854,9.209c0.563,1.121,1.296,2.578,1.563,3.347  c-0.509,0.071-1.345,0.072-1.95,0.073c-1.945,0.003-3.957,0.006-5.05,1.119c-0.46,0.467-0.697,1.086-0.687,1.79  c0.042,2.656,42.16,92.95,91.761,127.749c6.636,4.656,9.21,12.982,11.699,21.034c0.909,2.94,1.767,5.717,2.806,8.239  c0.374,0.909,0.379,1.669,0.017,2.394c-1.564,3.123-9.652,5.201-18.215,7.4c-4.941,1.27-10.049,2.582-15.005,4.292  c-61.734,7.598-61.731,11.024-61.731,12.672c0,3.317,2.206,4.9,3.817,6.056c1.625,1.166,1.86,1.497,1.573,2.215  c-0.376,0.941-1.279,1.909-2.234,2.934c-2.065,2.217-4.636,4.975-3.093,9.09c0.558,1.487,2.389,2.21,5.597,2.21  c5.546,0,14.548-2.09,21.165-3.857c-14.858,8.494-14.859,10.045-14.859,10.603c0,0.755,0,2.162,8.549,2.162  c8.537,0,22.06-1.545,32.073-5.898c3.096-1.346,5.734-2.64,8.285-3.89c2.409-1.181,4.688-2.298,6.98-3.265  c26.126,1.41,66.339,3.05,94.063,3.05c15.604,0,25.431-0.522,29.205-1.551c5.059-1.38,10.855-3.62,16.993-5.991  c11.324-4.375,23.033-8.9,32.104-8.9c1.857,0,3.552,0.198,5.037,0.589c13.288,3.496,18.372,14.022,18.422,14.128l0.201,0.427  l0.456,0.117c0.079,0.02,0.506,0.121,1.167,0.121c0,0,0,0,0,0c1.913,0,6.598-0.903,8.793-9.264c1.29-4.914-1.226-8.538-2.162-9.672  c0.235-2.671,0.776-15.885-10.323-24.661c-6.735-5.326-13.414-7.774-17.833-9.395c-2.089-0.766-4.951-1.815-4.901-2.371  c0.454-2.894,28.565-60.374,68.724-73.151c31.045-9.878,38.504-29.301,40.27-37.192  C360.485,136.389,360.254,132.086,358.839,130.772z" transform="matrix(0.16662918031215668 0 0 0.16662918031215668 59 318.0000010577047)" id="L1_6" fill="#cccccc"/><path d="M328.883,89.125l107.59,107.589l-272.34,272.34L56.604,361.465L328.883,89.125z M518.113,63.177l-47.981-47.981   c-18.543-18.543-48.653-18.543-67.259,0l-45.961,45.961l107.59,107.59l53.611-53.611   C532.495,100.753,532.495,77.559,518.113,63.177z M0.3,512.69c-1.958,8.812,5.998,16.708,14.811,14.565l119.891-29.069   L27.473,390.597L0.3,512.69z" transform="matrix(0.09389814734458923 0 0 0.09389814734458923 136.15989673137665 91.15989673137665)" id="L1_9" fill="#cccccc"/><g transform="matrix(0.18403234998291668 0.05811547765163257 -0.05811547765163257 0.18403234998291668 231.30564379771613 -35.92571492526183)" id="L1_10"><path d="M45.432,35.049c-0.008,0-0.017,0-0.025,0c-2.809,0-5.451,1.095-7.446,3.085c-2.017,2.012-3.128,4.691-3.128,7.543     v159.365c0,5.844,4.773,10.61,10.641,10.625c24.738,0.059,66.184,5.215,94.776,35.136V84.023c0-1.981-0.506-3.842-1.461-5.382     C115.322,40.849,70.226,35.107,45.432,35.049z" fill="#cccccc"/><path d="M262.167,205.042V45.676c0-2.852-1.111-5.531-3.128-7.543c-1.995-1.99-4.639-3.085-7.445-3.085c-0.009,0-0.018,0-0.026,0     c-24.793,0.059-69.889,5.801-93.357,43.593c-0.955,1.54-1.46,3.401-1.46,5.382v166.779     c28.592-29.921,70.038-35.077,94.776-35.136C257.394,215.651,262.167,210.885,262.167,205.042z" fill="#cccccc"/><path d="M286.373,71.801h-7.706v133.241c0,14.921-12.157,27.088-27.101,27.125c-20.983,0.05-55.581,4.153-80.084,27.344     c42.378-10.376,87.052-3.631,112.512,2.171c3.179,0.724,6.464-0.024,9.011-2.054c2.538-2.025,3.994-5.052,3.994-8.301V82.427     C297,76.568,292.232,71.801,286.373,71.801z" fill="#cccccc"/><path d="M18.332,205.042V71.801h-7.706C4.768,71.801,0,76.568,0,82.427v168.897c0,3.25,1.456,6.276,3.994,8.301     c2.545,2.029,5.827,2.78,9.011,2.054c25.46-5.803,70.135-12.547,112.511-2.171c-24.502-23.19-59.1-27.292-80.083-27.342     C30.49,232.13,18.332,219.963,18.332,205.042z" fill="#cccccc"/></g><g transform="matrix(0.06779607442337932 0.019682732336265173 -0.019682732336265173 0.06779607442337932 302.948640320496 208.37490600420375)" id="L1_11"><path d="M395.904,475.016l-236.203-72.7v71.524v49.896c0,56.133,105.787,101.644,236.274,101.644   c130.48,0,236.285-45.511,236.285-101.644c0-0.442-0.145-0.886-0.154-1.318V402.316L395.904,475.016z" fill="#cccccc"/><path d="M0,318.734l84.383,30.185l7.191-15.401l31-2.635l4.42,4.599l-26.601,6.308l-3.877,11.475   c-0.007,0-60.087,125.604-51.263,187.05c0,0,37.502,22.37,74.988,0l9.962-168v-13.984l55.8-12.588l-3.941,9.705l-41.604,13.529   l19.242,6.874l236.203,72.7l236.201-72.7l159.699-57.116l-395.9-152.313L0,318.734z" fill="#cccccc"/></g><g transform="matrix(0.5852534119331868 -0.2237733595711518 0.2237733595711518 0.5852534119331868 110.60041304580895 229.35557198668863)" id="L1_13"><path d="M97.265,71.261c-0.093-0.108-0.23-0.172-0.374-0.172H0.494c-0.144,0-0.28,0.063-0.374,0.172    c-0.094,0.108-0.136,0.253-0.115,0.396c0.014,0.09,1.468,9.016,12.753,9.016h71.869c11.284,0,12.738-8.926,12.753-9.016    C97.4,71.514,97.358,71.369,97.265,71.261z M55.942,77.547h-14.5v-3.334h14.5V77.547z" fill="#cccccc"/><path d="M10.507,67.619h76.37c1.104,0,2-0.896,2-2V18.713c0-1.104-0.896-2-2-2h-76.37c-1.104,0-2,0.896-2,2v46.906    C8.507,66.723,9.403,67.619,10.507,67.619z M15.507,23.713h66.37v36.906h-66.37V23.713z" fill="#cccccc"/></g></defs><g fi:class="KUsePattern"><pattern id="pattern_L1_5" width="350" height="350" patternUnits="userSpaceOnUse"><use xlink:href="#L1_5" x="-350" y="-350"/><use xlink:href="#L1_5" x="0" y="-350"/><use xlink:href="#L1_5" x="350" y="-350"/><use xlink:href="#L1_5" x="-350" y="0"/><use xlink:href="#L1_5" x="0" y="0"/><use xlink:href="#L1_5" x="350" y="0"/><use xlink:href="#L1_5" x="-350" y="350"/><use xlink:href="#L1_5" x="0" y="350"/><use xlink:href="#L1_5" x="350" y="350"/></pattern><rect x="0" y="0" width="100%" height="100%" fill="url(#pattern_L1_5)"/></g><g fi:class="KUsePattern"><pattern id="pattern_L1_6" width="350" height="350" patternUnits="userSpaceOnUse"><use xlink:href="#L1_6" x="-350" y="-350"/><use xlink:href="#L1_6" x="0" y="-350"/><use xlink:href="#L1_6" x="350" y="-350"/><use xlink:href="#L1_6" x="-350" y="0"/><use xlink:href="#L1_6" x="0" y="0"/><use xlink:href="#L1_6" x="350" y="0"/><use xlink:href="#L1_6" x="-350" y="350"/><use xlink:href="#L1_6" x="0" y="350"/><use xlink:href="#L1_6" x="350" y="350"/></pattern><rect x="0" y="0" width="100%" height="100%" fill="url(#pattern_L1_6)"/></g><g fi:class="KUsePattern"><pattern id="pattern_L1_9" width="350" height="350" patternUnits="userSpaceOnUse"><use xlink:href="#L1_9" x="-350" y="-350"/><use xlink:href="#L1_9" x="0" y="-350"/><use xlink:href="#L1_9" x="350" y="-350"/><use xlink:href="#L1_9" x="-350" y="0"/><use xlink:href="#L1_9" x="0" y="0"/><use xlink:href="#L1_9" x="350" y="0"/><use xlink:href="#L1_9" x="-350" y="350"/><use xlink:href="#L1_9" x="0" y="350"/><use xlink:href="#L1_9" x="350" y="350"/></pattern><rect x="0" y="0" width="100%" height="100%" fill="url(#pattern_L1_9)"/></g><g fi:class="KUsePattern"><pattern id="pattern_L1_10" width="350" height="350" patternUnits="userSpaceOnUse"><use xlink:href="#L1_10" x="-350" y="-350"/><use xlink:href="#L1_10" x="0" y="-350"/><use xlink:href="#L1_10" x="350" y="-350"/><use xlink:href="#L1_10" x="-350" y="0"/><use xlink:href="#L1_10" x="0" y="0"/><use xlink:href="#L1_10" x="350" y="0"/><use xlink:href="#L1_10" x="-350" y="350"/><use xlink:href="#L1_10" x="0" y="350"/><use xlink:href="#L1_10" x="350" y="350"/></pattern><rect x="0" y="0" width="100%" height="100%" fill="url(#pattern_L1_10)"/></g><g fi:class="KUsePattern"><pattern id="pattern_L1_11" width="350" height="350" patternUnits="userSpaceOnUse"><use xlink:href="#L1_11" x="-350" y="-350"/><use xlink:href="#L1_11" x="0" y="-350"/><use xlink:href="#L1_11" x="350" y="-350"/><use xlink:href="#L1_11" x="-350" y="0"/><use xlink:href="#L1_11" x="0" y="0"/><use xlink:href="#L1_11" x="350" y="0"/><use xlink:href="#L1_11" x="-350" y="350"/><use xlink:href="#L1_11" x="0" y="350"/><use xlink:href="#L1_11" x="350" y="350"/></pattern><rect x="0" y="0" width="100%" height="100%" fill="url(#pattern_L1_11)"/></g><g fi:class="KUsePattern"><pattern id="pattern_L1_13" width="350" height="350" patternUnits="userSpaceOnUse"><use xlink:href="#L1_13" x="-350" y="-350"/><use xlink:href="#L1_13" x="0" y="-350"/><use xlink:href="#L1_13" x="350" y="-350"/><use xlink:href="#L1_13" x="-350" y="0"/><use xlink:href="#L1_13" x="0" y="0"/><use xlink:href="#L1_13" x="350" y="0"/><use xlink:href="#L1_13" x="-350" y="350"/><use xlink:href="#L1_13" x="0" y="350"/><use xlink:href="#L1_13" x="350" y="350"/></pattern><rect x="0" y="0" width="100%" height="100%" fill="url(#pattern_L1_13)"/></g></svg>